<?xml version="1.0" standalone="no"?>
<!DOCTYPE svg PUBLIC "-//W3C//DTD SVG 20010904//EN"
 "http://www.w3.org/TR/2001/REC-SVG-20010904/DTD/svg10.dtd">
<svg version="1.0" xmlns="http://www.w3.org/2000/svg"
 width="897.000000pt" height="1304.000000pt" viewBox="0 0 897.000000 1304.000000"
 preserveAspectRatio="xMidYMid meet">
<metadata>
Created by potrace 1.16, written by Peter Selinger 2001-2019
</metadata>
<g transform="translate(0.000000,1304.000000) scale(0.100000,-0.100000)"
fill="#000000" stroke="none">
<path d="M4930 12923 c-14 -3 -83 -29 -153 -59 l-128 -55 -37 23 c-37 23 -39
23 -324 39 -37 2 -135 -63 -140 -92 l-3 -21 -28 22 -28 22 -42 -29 c-23 -17
-54 -33 -69 -37 -53 -13 -76 -107 -38 -156 21 -27 26 -60 10 -60 -5 0 -10 11
-10 25 0 28 -11 30 -59 14 -54 -19 -54 -13 7 111 18 36 32 68 32 73 0 14 -47
7 -120 -18 -86 -29 -90 -32 -99 -77 -5 -22 -13 -34 -26 -36 -42 -7 -48 -11
-35 -27 17 -20 4 -35 -31 -35 -17 0 -32 -6 -35 -15 -7 -19 -34 -20 -34 -2 0 7
16 32 35 54 39 46 42 55 19 74 -14 11 -18 10 -30 -6 -12 -17 -14 -17 -14 -2 0
23 -17 21 -30 -3 -13 -24 -48 -26 -76 -5 -30 23 -55 18 -119 -26 -40 -27 -67
-54 -81 -82 -14 -26 -31 -44 -45 -47 -32 -8 -69 -65 -69 -106 0 -43 -16 -84
-34 -84 -21 0 -36 -23 -49 -77 -9 -37 -17 -49 -34 -51 -12 -2 -33 -15 -47 -29
-19 -18 -26 -21 -26 -11 0 9 7 21 15 28 18 15 19 51 3 71 -14 18 -84 59 -99
59 -13 0 -69 -91 -69 -112 0 -10 7 -18 15 -18 8 0 15 -9 15 -20 0 -18 -4 -20
-54 -14 l-53 6 -7 -37 c-9 -45 9 -73 20 -31 3 14 13 26 21 26 11 0 13 -5 8
-17 -5 -10 -10 -32 -13 -50 -3 -21 -8 -30 -17 -27 -16 7 -31 -19 -40 -69 -5
-26 -12 -37 -24 -37 -22 0 -51 -32 -81 -87 -27 -48 -37 -53 -42 -20 -3 16 -6
11 -12 -18 -13 -72 -50 -120 -51 -65 0 11 -6 25 -13 32 -28 28 -93 -74 -71
-113 9 -19 8 -20 -10 -14 -14 4 -23 1 -27 -9 -3 -9 -12 -16 -19 -16 -8 0 -27
-12 -44 -26 -21 -17 -37 -23 -51 -19 -15 5 -20 2 -20 -13 0 -10 -18 -43 -40
-72 -22 -29 -40 -57 -40 -61 0 -4 -21 -11 -46 -15 -64 -9 -102 -47 -154 -151
-24 -48 -59 -105 -77 -126 -33 -37 -36 -57 -7 -57 8 0 14 -10 14 -22 0 -18 -2
-20 -9 -9 -8 12 -11 9 -16 -12 -4 -15 -11 -27 -16 -27 -5 0 -9 -4 -9 -10 0 -5
9 -10 19 -10 14 0 18 -5 14 -20 -5 -20 -7 -20 -30 -5 -31 21 -53 13 -53 -20 0
-22 2 -24 19 -13 15 9 23 9 35 -1 22 -19 20 -24 -15 -40 -50 -22 -97 -69 -110
-109 -12 -39 -29 -65 -29 -44 0 52 -73 -92 -84 -165 -4 -25 0 -65 9 -98 19
-73 13 -90 -25 -70 -27 14 -31 13 -58 -10 -17 -14 -37 -25 -45 -25 -9 0 -27
-5 -41 -11 -20 -9 -29 -9 -41 1 -12 10 -18 10 -30 0 -8 -7 -15 -19 -15 -26 0
-8 -4 -14 -10 -14 -5 0 -10 -11 -10 -25 0 -14 -5 -25 -10 -25 -6 0 -44 -34
-86 -75 l-74 -76 -6 31 c-9 40 -26 38 -78 -10 -24 -22 -71 -54 -104 -71 -33
-16 -83 -51 -111 -77 l-50 -47 1 -71 c0 -77 -10 -103 -53 -128 -16 -9 -45 -37
-65 -61 -23 -29 -44 -45 -59 -45 -32 0 -86 -20 -115 -42 -14 -11 -89 -81 -168
-155 l-142 -136 0 -54 c0 -68 -19 -130 -42 -136 -10 -3 -23 -18 -29 -34 l-11
-28 -18 23 c-20 24 -43 81 -60 150 -34 134 -49 -97 -17 -263 9 -51 26 -102 37
-117 23 -32 24 -40 8 -84 -10 -28 -9 -35 11 -60 41 -53 61 -112 61 -188 0 -39
7 -102 15 -139 8 -38 24 -130 35 -205 11 -75 27 -163 35 -195 8 -32 15 -76 15
-97 0 -22 8 -55 17 -75 14 -30 15 -38 4 -45 -11 -6 -6 -21 23 -68 20 -33 36
-64 36 -68 0 -5 19 -41 41 -79 23 -39 58 -112 79 -164 30 -75 49 -106 96 -156
62 -65 118 -138 130 -168 3 -10 14 -17 23 -16 40 6 103 -26 149 -75 26 -28 54
-60 62 -71 8 -11 28 -29 44 -39 58 -37 173 -135 207 -176 60 -73 109 -120 142
-135 18 -8 86 -47 152 -85 154 -90 161 -93 215 -85 25 4 61 9 80 11 54 8 96
-16 203 -115 98 -91 112 -101 119 -79 2 6 35 15 73 19 70 7 102 27 91 56 -3 7
-1 13 4 13 12 0 33 -39 34 -65 1 -16 8 -20 36 -20 30 0 37 5 57 40 12 22 43
105 69 185 57 180 64 200 75 200 4 0 27 -39 50 -87 22 -49 73 -142 112 -208
39 -66 81 -144 93 -174 14 -35 32 -60 48 -68 14 -7 89 -22 166 -33 154 -21
182 -32 228 -84 41 -47 67 -108 104 -246 17 -63 54 -182 83 -265 29 -82 69
-202 89 -265 70 -222 146 -400 190 -448 11 -13 34 -31 50 -39 28 -14 30 -14
47 8 10 13 19 28 19 32 0 4 28 20 62 36 90 40 90 41 77 152 -15 127 -15 186
-1 235 17 59 54 110 78 106 10 -2 35 -6 55 -9 47 -6 94 -46 147 -122 70 -102
56 -143 -81 -251 -105 -83 -136 -122 -117 -145 22 -26 65 -17 130 27 104 73
120 81 159 82 39 1 52 -8 236 -154 28 -22 70 -48 94 -57 41 -16 49 -16 125 0
144 30 155 28 242 -53 60 -56 101 -83 207 -135 73 -36 155 -70 182 -76 105
-24 213 -59 246 -82 36 -24 49 -53 104 -240 34 -115 97 -192 205 -253 69 -39
94 -67 86 -97 -3 -6 -7 -24 -10 -39 -4 -17 -39 -54 -101 -107 -113 -97 -123
-111 -135 -186 -8 -48 -16 -63 -47 -92 l-38 -34 77 5 c84 6 98 -2 98 -56 0
-13 4 -29 9 -36 11 -18 88 -21 130 -5 18 7 44 13 57 13 17 0 30 10 43 33 39
66 73 107 87 107 16 0 16 3 5 -77 -6 -38 -6 -76 0 -97 13 -49 65 -116 90 -116
25 0 49 53 49 108 0 82 9 102 67 139 59 38 67 51 77 136 8 65 -5 119 -37 154
-26 29 -31 29 -94 -4 -28 -15 -55 -25 -59 -21 -3 4 -1 46 6 95 11 74 17 92 42
116 33 34 45 29 73 -33 21 -45 24 -47 143 -54 46 -2 86 -6 88 -9 3 -3 8 -37
13 -77 6 -60 12 -76 32 -91 13 -11 32 -26 42 -36 10 -10 21 -13 26 -7 5 5 11
72 13 149 3 126 7 149 35 229 35 100 138 275 198 340 82 86 258 192 625 377
146 73 294 152 330 175 73 47 205 114 283 145 179 70 590 298 604 335 9 24
-25 66 -48 59 -11 -4 -19 -2 -19 4 0 6 9 11 20 11 24 0 26 13 5 30 -20 17 -19
30 7 57 17 18 19 26 9 36 -9 9 -14 9 -21 -3 -7 -11 -11 -8 -20 15 -26 73 -34
86 -64 105 -47 29 -106 118 -99 152 4 23 -1 29 -40 52 -25 15 -48 37 -51 49
-11 42 -6 64 17 74 22 11 21 11 -8 18 -16 4 -64 19 -104 33 l-75 26 32 13 c38
16 41 41 10 70 -35 31 -46 35 -66 22 -15 -9 -24 -8 -45 6 -15 9 -27 23 -27 29
0 14 -33 81 -51 102 -9 11 -8 18 5 33 9 10 14 25 10 35 -6 16 -8 16 -24 -1
-17 -19 -37 -52 -63 -109 -10 -22 -24 -33 -45 -37 -17 -4 -36 -16 -42 -28 -10
-18 -9 -25 9 -43 l21 -21 -6 31 c-3 18 -2 34 4 38 15 9 33 -19 39 -63 4 -31 1
-46 -15 -66 -24 -30 -20 -52 11 -59 12 -2 -6 -2 -40 1 -57 4 -66 2 -108 -26
-25 -17 -50 -31 -56 -31 -12 0 -12 27 1 35 6 3 10 15 10 25 0 25 -43 37 -77
21 -28 -13 -94 -5 -105 13 -4 6 -8 24 -8 39 0 24 -3 27 -21 22 -15 -5 -22 -2
-26 14 -3 12 -15 21 -32 23 -23 3 -26 7 -25 36 1 20 -2 31 -10 30 -6 -1 -26
12 -43 30 -31 32 -34 32 -55 18 -12 -9 -37 -16 -55 -16 -29 0 -33 3 -33 25 0
30 -41 72 -78 82 -20 5 -30 0 -46 -20 -14 -17 -35 -28 -63 -33 -37 -6 -44 -11
-54 -41 -6 -19 -18 -37 -28 -40 -22 -8 -121 -114 -121 -130 0 -7 -6 -24 -12
-39 l-13 -27 -5 23 c-4 16 -16 27 -35 32 -42 11 -55 3 -55 -33 0 -23 -5 -32
-21 -36 -12 -3 -27 -22 -35 -44 -19 -46 -44 -60 -44 -24 0 19 -9 29 -37 42
-26 12 -46 33 -63 64 -32 60 -49 79 -67 79 -12 0 -14 -7 -9 -32 4 -20 3 -29
-3 -23 -5 6 -13 30 -18 53 -4 24 -10 42 -13 40 -3 -1 -18 5 -33 14 -31 21
-117 52 -124 44 -3 -2 11 -15 31 -28 37 -24 62 -63 46 -73 -5 -3 -11 3 -15 14
-10 32 -30 44 -54 32 -12 -6 -30 -15 -41 -21 -30 -15 -42 -12 -35 9 5 16 0 20
-27 23 -26 2 -33 7 -33 25 0 12 -8 30 -17 40 -17 16 -18 16 -18 -20 0 -20 -3
-37 -7 -37 -18 1 -61 48 -88 95 -27 47 -29 49 -35 25 -14 -58 -86 -24 -154 72
-54 76 -82 108 -95 108 -6 0 1 -16 14 -36 31 -45 33 -69 6 -55 -11 6 -28 23
-40 38 -11 16 -21 22 -21 14 0 -22 -30 8 -30 30 0 12 -7 19 -19 19 -14 0 -18
-5 -14 -20 8 -30 -25 -26 -37 5 -5 14 -25 35 -44 46 -22 13 -33 26 -29 35 5
14 -39 98 -59 110 -13 8 -3 -11 18 -36 7 -8 16 -27 19 -42 6 -24 4 -28 -13
-28 -11 0 -27 10 -36 23 l-17 22 4 -27 c2 -16 1 -28 -4 -28 -14 0 -29 37 -35
87 -3 26 -13 62 -22 80 -15 30 -15 33 3 53 16 18 17 23 5 30 -8 6 -18 10 -22
10 -4 0 -12 19 -18 43 -6 23 -20 70 -32 105 l-20 63 -14 -26 c-12 -24 -11 -31
11 -69 14 -24 25 -51 25 -62 -1 -17 -3 -16 -20 6 -11 14 -24 30 -30 37 -5 7
-10 17 -10 22 0 6 -13 39 -30 73 -29 59 -32 84 -8 60 7 -7 18 -12 26 -12 22 0
-2 26 -60 65 -34 22 -44 35 -37 42 17 17 -7 26 -30 11 -17 -10 -26 -10 -53 3
-18 9 -45 21 -60 27 -15 6 -39 29 -53 51 -35 57 -76 185 -82 256 -4 57 -3 59
11 35 l15 -25 1 28 c0 16 -9 41 -20 57 l-20 28 28 10 c15 6 45 16 67 22 22 5
46 14 54 19 10 6 24 5 43 -5 31 -16 34 -9 16 31 -17 37 3 54 31 26 12 -12 23
-21 25 -21 1 0 1 23 -2 51 -4 45 -3 51 17 56 13 3 20 11 17 19 -4 9 2 14 15
14 17 0 20 4 15 20 -3 11 -9 29 -12 40 -5 16 -2 20 16 20 15 0 20 5 17 14 -3
7 -1 18 5 24 8 8 7 13 -5 18 -13 5 -14 10 -5 30 14 29 18 30 53 2 l27 -21 -6
21 c-6 19 -3 22 18 22 16 0 26 6 26 15 0 8 -4 15 -10 15 -18 0 -11 58 8 69 15
9 14 11 -8 19 -15 6 -37 30 -52 59 -15 27 -45 70 -67 94 -75 86 -110 193 -92
282 13 63 77 199 103 220 13 10 32 37 43 60 24 49 64 72 169 94 138 28 276 16
392 -37 171 -77 286 -195 438 -447 20 -35 41 -65 46 -68 5 -3 24 4 42 15 18
11 43 20 56 20 12 0 22 5 22 10 0 16 81 90 120 110 82 42 96 -32 21 -114 l-26
-29 39 26 c22 15 41 25 43 23 2 -1 -4 -22 -12 -46 -8 -24 -13 -45 -11 -47 2
-2 20 5 40 17 l37 20 26 -20 c14 -11 29 -17 34 -14 5 3 9 32 9 65 0 32 4 59 9
59 9 0 26 -38 37 -82 8 -35 20 -36 28 -3 9 37 23 31 62 -31 36 -56 36 -58 32
-144 -3 -66 -9 -94 -24 -115 -10 -15 -24 -36 -29 -45 -6 -10 -17 -25 -24 -34
-11 -13 -11 -16 0 -16 8 0 19 4 24 8 11 7 60 104 69 135 10 31 28 7 22 -28 -5
-27 -3 -33 13 -38 11 -3 26 2 32 10 7 8 20 12 30 10 12 -3 19 3 23 19 7 27 18
30 36 9 9 -11 16 -12 31 -2 14 8 22 9 27 1 13 -20 79 -64 95 -64 25 0 47 -29
47 -60 0 -19 7 -33 20 -40 27 -15 25 -49 -5 -91 -22 -29 -23 -35 -10 -37 11
-3 14 -9 10 -20 -36 -88 -31 -97 44 -81 29 6 62 8 75 5 22 -5 81 -47 121 -85
11 -10 34 -21 50 -24 17 -3 49 -11 73 -18 32 -10 52 -11 84 -2 23 6 51 8 62 3
30 -11 98 12 144 49 22 17 50 35 62 39 14 5 27 23 34 43 7 22 17 34 29 34 10
0 21 5 25 10 11 16 50 35 71 35 11 0 23 4 26 10 3 5 20 13 38 18 23 6 47 29
92 88 l61 79 45 -3 c33 -2 51 2 70 17 l26 20 42 -21 c38 -19 43 -19 66 -4 23
15 25 15 40 -6 8 -12 15 -28 15 -35 0 -7 5 -13 11 -13 8 0 10 19 7 58 -3 47
-14 75 -56 149 -34 60 -59 119 -73 174 -11 46 -47 144 -79 219 -32 74 -71 173
-85 220 -41 131 -68 204 -129 342 -30 70 -62 156 -70 191 -8 36 -38 122 -66
192 -56 140 -80 222 -80 271 0 56 -69 275 -114 364 -24 47 -46 96 -50 110 -4
14 -56 124 -114 245 -96 198 -107 225 -106 273 l0 54 -72 54 c-95 71 -255 239
-281 295 -11 24 -24 64 -28 89 -9 58 -16 70 -90 160 -34 41 -84 109 -112 150
-28 42 -72 100 -98 130 -26 30 -56 72 -66 93 -11 21 -39 55 -61 75 -87 78
-124 121 -163 187 -45 77 -136 172 -211 221 -28 18 -65 50 -82 71 -51 65 -161
262 -164 296 l-3 32 -103 6 c-96 6 -134 16 -104 26 6 3 10 9 6 14 -14 24 -140
58 -341 93 -51 9 -95 23 -114 37 -18 12 -52 24 -78 27 -42 4 -50 1 -96 -37
-27 -23 -54 -41 -59 -41 -5 0 -14 -7 -21 -16 -10 -15 -17 -12 -66 22 -30 20
-65 48 -79 60 -14 12 -41 25 -60 29 -58 12 -86 32 -132 92 -57 75 -118 96
-228 76z m-4500 -3728 c14 -17 130 -55 169 -55 36 0 51 -17 51 -57 0 -69 -45
-118 -150 -167 -71 -33 -90 -33 -90 0 0 14 -4 23 -10 19 -14 -9 -12 7 5 49 8
20 11 36 6 36 -10 0 -71 -119 -71 -139 0 -6 -5 -11 -11 -11 -23 0 13 197 53
293 22 51 29 55 48 32z m3394 -2357 c19 -27 21 -54 4 -62 -10 -5 -10 -7 0 -12
19 -9 14 -31 -9 -37 -11 -3 -23 -15 -26 -26 -6 -22 -27 -28 -38 -10 -4 6 -22
8 -46 4 -44 -8 -44 -7 -24 42 19 44 14 51 -20 29 -21 -14 -29 -15 -41 -5 -11
9 -14 8 -14 -6 0 -9 -19 -34 -42 -55 -41 -36 -44 -37 -71 -23 -26 13 -30 13
-40 -1 -15 -20 -77 -33 -77 -16 0 6 13 24 29 40 16 16 26 32 23 35 -3 3 19 5
50 5 30 0 57 3 60 6 4 3 -5 22 -18 41 -26 39 -31 63 -11 63 6 0 39 -13 72 -28
l60 -29 28 30 c16 17 33 27 42 24 8 -4 17 -2 20 3 12 20 73 11 89 -12z m645
-73 c47 -44 85 -57 94 -32 3 9 9 7 24 -5 25 -23 33 -23 33 2 0 11 1 20 3 20 1
0 24 -7 51 -15 27 -8 58 -15 69 -15 19 0 20 1 2 20 -15 17 -16 20 -3 20 9 0
21 7 28 15 16 20 126 20 200 0 96 -25 128 -44 141 -83 8 -25 8 -36 0 -41 -7
-4 6 -19 32 -38 l44 -30 -5 -57 c-4 -52 -3 -58 17 -63 27 -7 28 -23 1 -23 -28
0 -25 -25 5 -38 25 -11 31 -34 19 -66 -5 -12 -11 -13 -24 -6 -13 7 -21 7 -25
0 -10 -16 3 -28 50 -49 25 -11 45 -24 45 -30 0 -11 -106 34 -133 57 -9 8 -20
12 -23 9 -9 -9 125 -185 147 -192 25 -8 137 -130 156 -171 21 -44 7 -57 -21
-20 -37 52 -69 78 -91 74 -18 -4 -20 0 -17 23 2 15 -1 35 -8 46 -10 15 -10 14
-6 -12 6 -28 2 -26 -50 30 l-56 60 6 -35 c4 -19 15 -43 25 -55 19 -21 56 -124
47 -132 -16 -16 -116 86 -116 118 0 17 -49 64 -57 55 -3 -3 -2 -14 2 -26 5
-15 12 -19 26 -15 15 5 19 1 19 -19 0 -14 6 -43 14 -63 8 -21 17 -49 20 -63 3
-14 23 -47 46 -74 58 -70 49 -78 -17 -14 -32 30 -69 60 -83 68 -25 13 -25 13
3 -17 31 -33 34 -45 11 -36 -15 5 -15 3 0 -26 19 -36 14 -39 -15 -10 -11 11
-23 18 -26 15 -6 -5 8 -27 49 -78 19 -24 20 -30 8 -52 -7 -14 -10 -32 -7 -40
4 -9 4 -16 1 -16 -10 0 -53 55 -64 82 -10 23 -40 47 -40 32 0 -12 26 -52 70
-110 67 -87 82 -158 22 -101 -28 27 -66 35 -77 17 -3 -5 -16 -10 -29 -10 -12
0 -28 -6 -35 -12 -10 -11 -19 -5 -47 26 -20 23 -34 50 -34 66 0 27 -16 50 -35
50 -7 0 -29 -16 -49 -36 -36 -35 -66 -40 -66 -10 0 13 -20 26 -41 26 -5 0 -9
-11 -9 -25 0 -20 -7 -26 -39 -35 -57 -15 -127 17 -90 41 11 7 7 15 -17 38 -17
16 -38 31 -45 33 -11 4 -10 13 6 47 22 50 15 70 -31 84 -16 5 -35 15 -43 21
-7 6 -33 12 -57 13 -38 3 -44 1 -44 -17 0 -11 -5 -20 -11 -20 -8 0 -9 14 -5
44 7 47 -4 66 -29 46 -11 -9 -19 -4 -40 29 -26 38 -26 42 -16 111 6 39 17 80
23 90 11 16 9 26 -7 57 -11 21 -33 53 -50 72 -27 31 -28 33 -7 27 35 -12 52
10 52 65 0 37 -5 51 -21 62 -17 13 -19 21 -13 65 3 28 4 62 0 76 -8 34 -36 34
-36 1 0 -21 -3 -24 -17 -14 -23 14 -22 91 1 134 9 17 16 42 16 58 0 15 5 27
10 27 6 0 10 -6 10 -14 0 -36 150 -21 175 18 18 28 54 18 104 -29z m-901 -127
c13 -13 16 -78 6 -115 -8 -29 -30 -29 -45 -1 -12 23 -12 23 -22 -7 -19 -59
-42 -71 -57 -29 -11 27 -30 24 -30 -5 0 -10 -10 -31 -21 -45 -24 -31 -39 -21
-39 24 0 58 50 115 137 155 17 8 34 19 38 25 8 13 18 13 33 -2z"/>
<path d="M8460 11578 c-25 -41 -25 -53 0 -92 38 -63 152 -125 203 -112 32 8
89 64 85 84 -2 8 -28 28 -58 44 -30 15 -65 41 -78 58 -21 27 -73 50 -115 50
-9 0 -26 -15 -37 -32z"/>
<path d="M109 10440 c-21 -11 -43 -34 -53 -53 -8 -19 -25 -37 -36 -40 -17 -4
-20 -13 -20 -59 l0 -54 111 -57 c125 -63 139 -63 166 1 29 69 -11 188 -84 253
-39 34 -37 34 -84 9z"/>
<path d="M5591 8620 c-74 -27 -100 -46 -106 -78 -20 -94 -47 -136 -107 -166
-12 -6 -29 -23 -37 -38 -19 -33 -4 -88 38 -139 30 -37 53 -48 306 -155 50 -21
105 -47 124 -58 l33 -19 -23 -12 c-13 -7 -48 -15 -78 -18 -29 -4 -56 -8 -58
-11 -9 -9 8 -26 27 -26 27 0 38 -26 52 -117 11 -77 12 -79 79 -148 60 -63 68
-77 73 -120 10 -75 25 -99 71 -109 71 -15 84 -23 90 -59 4 -19 2 -51 -3 -70
-9 -32 -7 -41 14 -72 34 -50 64 -111 64 -130 0 -8 -9 -15 -19 -15 -17 0 -18
-4 -9 -39 11 -42 51 -71 100 -71 42 0 98 20 98 36 0 8 14 23 31 33 67 41 100
167 96 366 -2 111 1 137 18 175 15 35 19 68 20 145 l0 100 -64 148 c-75 173
-174 330 -255 404 -58 53 -174 138 -213 156 -12 5 -43 29 -68 53 -79 73 -186
93 -294 54z m475 -361 c33 -16 76 -47 98 -67 73 -70 196 -274 196 -324 0 -35
-11 -68 -22 -68 -16 0 -44 35 -124 155 -46 71 -107 144 -168 205 -95 93 -108
113 -83 123 26 11 47 6 103 -24z m262 -621 c14 -46 11 -125 -9 -203 -10 -40
-15 -46 -50 -55 -21 -6 -41 -15 -44 -20 -13 -21 -45 -9 -61 22 -44 86 -23 227
46 299 l39 41 33 -20 c23 -15 37 -34 46 -64z"/>
<path d="M290 6281 c0 -8 20 -76 45 -152 59 -180 73 -251 86 -428 12 -165 5
-318 -18 -403 -13 -49 -15 -113 -10 -425 6 -479 22 -579 97 -614 86 -40 365
-99 568 -119 111 -10 209 -6 395 21 87 12 117 5 117 -28 0 -37 -47 -170 -84
-238 -19 -34 -41 -87 -50 -119 -10 -32 -41 -97 -71 -145 -29 -47 -64 -111 -78
-141 -31 -67 -93 -273 -107 -353 -13 -78 -66 -206 -136 -331 -49 -87 -79 -122
-205 -251 -183 -185 -203 -213 -273 -358 -60 -125 -79 -145 -146 -154 l-40 -6
0 99 c0 55 5 118 10 142 10 40 8 45 -22 83 -31 39 -32 40 -15 68 29 50 23 191
-13 305 -17 52 -32 122 -35 156 -3 34 -9 90 -15 124 -5 33 -10 64 -10 69 0 4
-5 7 -10 7 -23 0 -39 -80 -105 -525 -20 -132 -41 -256 -46 -275 -6 -19 -14
-98 -19 -175 -6 -106 -13 -153 -29 -193 -15 -39 -18 -58 -11 -71 14 -27 37
-229 50 -436 12 -192 30 -382 55 -560 16 -119 20 -282 7 -303 -12 -17 -68 -32
-124 -32 l-48 0 0 -94 c0 -106 3 -110 71 -100 97 16 131 -36 205 -313 3 -10
89 -13 390 -13 l386 0 -31 35 c-32 37 -39 55 -20 55 19 0 -2 109 -32 163 -16
29 -29 60 -29 70 0 11 -22 39 -50 64 -46 41 -50 49 -50 90 0 57 -25 110 -60
128 -35 18 -75 127 -65 174 5 24 0 35 -31 65 -20 19 -43 47 -50 61 -8 14 -21
37 -29 52 -11 20 -15 59 -15 134 l0 106 -55 62 c-30 34 -58 73 -61 86 -3 14
-13 29 -22 34 -23 13 -19 67 8 96 24 26 24 28 0 200 -6 39 -12 86 -14 105 -2
19 -9 51 -15 70 -19 60 -15 78 26 99 43 22 158 123 174 153 6 11 13 43 16 71
6 70 51 160 112 227 49 53 51 54 66 36 27 -35 18 -68 -31 -116 -39 -38 -104
-152 -104 -181 0 -20 31 -6 91 40 35 27 91 63 124 81 83 45 81 42 115 133 54
138 115 249 179 322 34 39 71 90 82 115 65 142 113 259 149 365 48 141 127
308 165 349 24 26 27 27 44 12 35 -32 42 -91 38 -306 -2 -113 -9 -238 -16
-278 -9 -55 -9 -92 0 -150 6 -42 10 -90 9 -107 -3 -34 -4 -174 -2 -220 1 -16
2 -45 1 -63 0 -18 4 -39 9 -45 5 -7 12 -28 15 -47 4 -19 11 -62 16 -95 6 -33
17 -89 26 -125 9 -36 20 -103 24 -150 5 -53 18 -108 34 -146 27 -64 41 -133
52 -269 4 -44 15 -98 24 -120 23 -58 23 -297 -2 -380 -9 -34 -26 -135 -37
-225 -23 -186 -42 -298 -57 -324 -5 -10 -27 -28 -49 -40 -40 -22 -41 -25 -74
-166 -16 -69 -50 -138 -84 -169 l-26 -25 25 -26 c22 -23 24 -31 16 -53 l-11
-27 124 0 124 0 105 203 c147 284 292 660 338 872 17 84 15 242 -5 361 -10 56
-16 119 -14 140 3 35 6 39 32 42 16 2 47 -4 68 -14 48 -21 91 -11 96 24 3 18
-6 27 -50 47 -29 14 -61 25 -71 25 -25 0 -56 17 -90 48 -32 31 -65 129 -101
304 -13 62 -33 135 -45 163 -12 27 -27 72 -33 100 -6 27 -24 82 -39 122 -22
54 -29 88 -29 140 0 60 -4 76 -29 114 -38 57 -74 176 -75 249 -1 47 4 62 26
91 l26 35 -29 62 c-39 80 -48 139 -55 352 -5 133 -3 207 10 309 32 258 63 355
138 433 32 34 38 46 38 83 0 25 7 66 16 92 16 46 15 151 -2 284 -5 43 -3 49
44 111 27 35 52 73 54 84 15 66 -92 131 -148 89 -23 -18 -60 -19 -70 -3 -4 7
-7 45 -6 85 1 71 0 76 -32 110 l-33 36 -7 -59 c-4 -32 -10 -64 -14 -70 -4 -6
-34 -14 -67 -18 -37 -4 -87 -20 -130 -42 -38 -19 -124 -49 -190 -66 -114 -31
-129 -33 -300 -33 -216 0 -263 10 -442 95 -202 96 -230 128 -174 199 17 21 31
50 31 64 0 14 4 29 10 32 5 3 12 28 16 55 l6 49 67 3 c36 2 66 8 66 13 0 6
-18 21 -39 35 -28 18 -46 43 -71 95 -18 38 -36 84 -39 101 -4 17 -20 43 -35
58 -27 26 -28 29 -14 56 16 33 4 96 -27 140 -9 14 -23 43 -30 65 -6 22 -41 88
-76 146 -35 59 -64 109 -64 112 0 4 -9 21 -20 39 -11 18 -20 27 -20 19z"/>
<path d="M7546 4118 c-129 -28 -188 -60 -283 -153 -85 -82 -96 -104 -70 -140
14 -17 15 -17 45 0 38 23 46 40 31 67 -9 17 -6 25 20 51 35 35 51 32 22 -4
-17 -22 -18 -30 -8 -62 12 -37 12 -37 67 -37 84 0 159 30 191 76 15 21 24 45
21 53 -3 8 -1 12 5 8 6 -4 13 1 15 11 3 10 31 33 62 50 60 34 70 56 38 85 -23
21 -43 20 -156 -5z"/>
<path d="M7967 3655 c-4 -8 -22 -21 -42 -29 -41 -17 -160 -120 -178 -154 -7
-12 -29 -41 -50 -65 -21 -23 -62 -70 -91 -104 -30 -34 -61 -74 -69 -90 -9 -15
-29 -41 -46 -57 -17 -16 -38 -52 -47 -80 -9 -28 -25 -63 -35 -78 -11 -14 -19
-32 -19 -40 0 -7 -14 -21 -30 -30 -40 -23 -43 -73 -5 -90 30 -14 23 -28 -14
-28 -15 0 -36 -6 -46 -14 -18 -13 -18 -14 5 -46 13 -18 19 -35 13 -39 -18 -12
-43 -56 -43 -76 0 -11 -11 -37 -25 -57 -14 -20 -25 -43 -25 -51 0 -21 26 -28
53 -16 29 15 86 93 94 130 8 41 19 36 27 -10 6 -39 26 -67 26 -38 0 8 9 34 20
58 11 24 20 58 20 76 0 38 22 63 57 63 l26 0 -21 23 c-12 13 -22 31 -22 40 0
21 26 22 34 2 3 -8 15 -15 27 -15 20 0 21 1 5 25 -22 33 -20 54 8 95 13 19 42
74 64 121 23 48 48 89 56 92 8 3 21 28 31 56 11 35 28 60 55 81 39 31 90 121
90 157 0 30 49 121 68 128 16 4 52 53 52 69 0 12 -18 5 -23 -9z"/>
<path d="M4045 3343 c-22 -25 -39 -35 -60 -35 -74 0 -95 -8 -95 -33 0 -19 6
-26 28 -30 209 -40 241 -72 162 -166 -22 -26 -46 -65 -53 -86 -6 -20 -21 -42
-32 -48 -42 -22 -48 -27 -35 -35 15 -9 50 -1 50 11 0 5 20 14 44 20 61 15 120
68 142 127 9 26 21 51 26 57 20 23 7 55 -41 95 -47 40 -48 42 -40 78 7 31 4
41 -13 59 -29 31 -47 28 -83 -14z"/>
<path d="M6772 2949 c-56 -21 -6 -64 123 -105 60 -19 111 -27 202 -31 136 -7
148 -1 121 54 -15 31 -6 29 -243 63 -82 12 -157 23 -165 24 -9 2 -26 -1 -38
-5z"/>
<path d="M2570 2883 c0 -28 112 -84 206 -103 67 -14 137 -47 242 -114 168
-109 292 -142 365 -97 49 30 52 46 14 75 -85 64 -274 140 -489 196 -153 40
-338 64 -338 43z"/>
<path d="M6768 2716 c-26 -7 -54 -18 -62 -26 -19 -15 -21 -50 -3 -50 7 0 45
-16 85 -35 40 -19 72 -32 72 -29 0 4 -14 24 -31 45 -17 21 -28 43 -25 48 4 5
25 4 53 -3 39 -10 51 -18 65 -46 10 -19 25 -41 35 -47 15 -12 15 -14 -1 -32
-20 -22 -26 -19 71 -40 74 -15 85 31 26 116 -44 64 -65 79 -140 98 -67 18 -83
18 -145 1z"/>
<path d="M6610 2412 c-20 -7 -25 -14 -25 -42 0 -29 5 -37 30 -49 17 -8 49 -31
72 -52 39 -35 48 -39 98 -39 60 0 73 -15 25 -27 -43 -11 -37 -26 18 -40 66
-17 71 -17 83 14 14 39 -3 73 -72 140 -59 57 -70 77 -46 86 6 3 -4 6 -23 6
-19 1 -57 3 -85 6 -27 2 -61 1 -75 -3z"/>
<path d="M6512 2089 c-109 -72 -109 -255 2 -308 42 -21 120 -28 142 -13 27 17
33 53 31 171 -2 122 -3 123 -30 143 -42 31 -105 34 -145 7z"/>
<path d="M7405 418 c-90 -52 -215 -177 -215 -214 0 -6 -7 -17 -15 -24 -8 -7
-18 -28 -21 -49 -4 -20 -13 -50 -21 -68 -21 -52 -17 -63 22 -63 35 0 35 0 35
45 0 58 31 139 74 193 19 24 36 46 38 50 2 4 26 21 53 37 50 28 105 79 105 96
0 13 -31 11 -55 -3z"/>
</g>
</svg>
